<svg width="500" height="500" viewBox="0 0 500 500" fill="none" xmlns="http://www.w3.org/2000/svg">
<rect width="500" height="500" fill="black"/>
<path d="M121.621 322.256L34.5915 278.18V242.806L121.621 198.73V238.315L67.1573 260.212L121.621 282.671V322.256ZM195.578 379.807C181.354 379.807 169.469 376.626 159.924 370.262C150.566 363.899 142.893 353.511 136.904 339.1L168.066 325.344C171.06 332.643 174.523 338.445 178.453 342.75C182.571 346.867 187.062 348.926 191.929 348.926C195.485 348.926 198.105 348.177 199.789 346.68C201.661 345.183 202.597 343.124 202.597 340.504C202.597 336.199 200.912 332.269 197.543 328.713C194.362 325.157 188.56 319.916 180.138 312.991L168.346 303.165C159.737 295.866 152.906 288.848 147.852 282.11C142.986 275.185 140.553 266.669 140.553 256.563C140.553 247.766 142.799 239.999 147.291 233.261C151.97 226.524 158.146 221.283 165.82 217.54C173.493 213.797 181.728 211.925 190.525 211.925C204 211.925 215.23 215.575 224.214 222.874C233.197 230.173 239.561 240.467 243.304 253.755L213.265 267.231C212.142 263.675 210.551 260.119 208.492 256.563C206.433 253.007 204 250.012 201.193 247.579C198.386 245.146 195.204 243.929 191.648 243.929C188.653 243.929 186.22 244.772 184.349 246.456C182.664 248.14 181.822 250.386 181.822 253.194C181.822 256.75 183.787 260.587 187.717 264.704C191.835 268.822 197.45 273.781 204.562 279.583L216.072 289.69C220.751 293.62 225.337 297.831 229.828 302.323C234.32 306.815 237.97 311.775 240.777 317.202C243.772 322.63 245.269 328.806 245.269 335.731C245.269 345.089 242.93 353.137 238.251 359.875C233.572 366.425 227.395 371.385 219.722 374.754C212.235 378.123 204.188 379.807 195.578 379.807ZM262.346 377L331.969 149.601H356.674L286.77 377H262.346ZM383.871 322.256V282.671L438.335 260.212L383.871 238.315V198.73L470.9 242.806V278.18L383.871 322.256Z" fill="#1ED760"/>
</svg>
